<?xml version="1.0" encoding="utf-8"?>
<!-- Generator: Adobe Illustrator 23.0.3, SVG Export Plug-In . SVG Version: 6.00 Build 0)  -->
<svg version="1.1" id="Layer_1" xmlns="http://www.w3.org/2000/svg" xmlns:xlink="http://www.w3.org/1999/xlink" x="0px" y="0px"
	 viewBox="0 0 503.2 500" style="enable-background:new 0 0 503.2 500;" xml:space="preserve">
<style type="text/css">
	.st0{display:none;}
	.st1{fill:#1F0B68;}
	.st2{font-family:'ArialMT';}
	.st3{font-size:26.8947px;}
	.st4{font-size:22.4198px;}
	.st5{fill:#FF2E2E;}
	.st6{fill:#585555;}
	.st7{fill:#CAE48C;}
	.st8{fill:#00A162;}
</style>
<g class="st0">
	
		<image style="display:inline;overflow:visible;enable-background:new    ;" width="86" height="90" xlink:href="3759F532.png"  transform="matrix(4.7778 0 0 4.7778 44.5556 35)">
	</image>
</g>
<g>
	<g id="logo">
		<polygon id="cross" class="st1" points="409.7,81.2 406.9,163.1 363.3,163.1 352.9,181.8 409.7,181.8 406,418.2 417.8,410.8 
			426.7,181.8 461.4,181.8 461.4,164 426.3,163.6 427.2,92.6 		"/>
		<text transform="matrix(1.0504 0 0 1 331.2988 237.0742)" class="st1 st2 st3">E</text>
		<text transform="matrix(1.0504 0 0 1 345.1973 237.0742)" class="st1 st2 st3">x</text>
		<text transform="matrix(1.0504 0 0 1 357.8535 237.0742)" class="st1 st2 st3">c</text>
		<text transform="matrix(1.0504 0 0 1 370.3398 237.0742)" class="st1 st2 st3">e</text>
		<text transform="matrix(1.0504 0 0 1 384.4922 237.0742)" class="st1 st2 st3">l</text>
		<text transform="matrix(1.0504 0 0 1 291.9766 269.3477)" class="st1 st2 st3">T</text>
		<text transform="matrix(1.0504 0 0 1 304.0107 269.3477)" class="st1 st2 st3">o</text>
		<text transform="matrix(1.0504 0 0 1 319.5195 269.3477)" class="st1 st2 st3"> </text>
		<text transform="matrix(1.0504 0 0 1 325.5078 269.3477)" class="st1 st2 st3">S</text>
		<text transform="matrix(1.0504 0 0 1 339.6045 269.3477)" class="st1 st2 st3">e</text>
		<text transform="matrix(1.0504 0 0 1 353.7578 269.3477)" class="st1 st2 st3">r</text>
		<text transform="matrix(1.0504 0 0 1 363.7012 269.3477)" class="st1 st2 st3">v</text>
		<text transform="matrix(1.0504 0 0 1 377.0059 269.3477)" class="st1 st2 st3">e</text>
		<text transform="matrix(1.0504 0 0 1 229.4512 379.6973)" class="st1 st2 st4">C</text>
		<text transform="matrix(1.0504 0 0 1 242.9448 379.6973)" class="st1 st2 st4">a</text>
		<text transform="matrix(1.0504 0 0 1 254.2949 379.6973)" class="st1 st2 st4">r</text>
		<text transform="matrix(1.0504 0 0 1 262.0898 379.6973)" class="st1 st2 st4">m</text>
		<text transform="matrix(1.0504 0 0 1 281.7295 379.6973)" class="st1 st2 st4">e</text>
		<text transform="matrix(1.0504 0 0 1 293.5273 379.6973)" class="st1 st2 st4">l</text>
		<text transform="matrix(1.0504 0 0 1 187.1455 406.6006)" class="st1 st2 st4">S</text>
		<text transform="matrix(1.0504 0 0 1 198.8965 406.6006)" class="st1 st2 st4">c</text>
		<text transform="matrix(1.0504 0 0 1 209.4463 406.6006)" class="st1 st2 st4">h</text>
		<text transform="matrix(1.0504 0 0 1 222.5161 406.6006)" class="st1 st2 st4">o</text>
		<text transform="matrix(1.0504 0 0 1 235.4443 406.6006)" class="st1 st2 st4">o</text>
		<text transform="matrix(1.0504 0 0 1 248.373 406.6006)" class="st1 st2 st4">l</text>
		<text transform="matrix(1.0504 0 0 1 253.9297 406.6006)" class="st1 st2 st4"> </text>
		<text transform="matrix(1.0504 0 0 1 258.9219 406.6006)" class="st1 st2 st4">C</text>
		<text transform="matrix(1.0504 0 0 1 272.5801 406.6006)" class="st1 st2 st4">h</text>
		<text transform="matrix(1.0504 0 0 1 285.6494 406.6006)" class="st1 st2 st4">a</text>
		<text transform="matrix(1.0504 0 0 1 297 406.6006)" class="st1 st2 st4">m</text>
		<text transform="matrix(1.0504 0 0 1 316.6406 406.6006)" class="st1 st2 st4">b</text>
		<text transform="matrix(1.0504 0 0 1 330.04 406.6006)" class="st1 st2 st4">a</text>
		<path class="st5" d="M155.8,109.7c-9.6,109.3,84.7,122.3,114,119.5c81.9-3.5,139.5-103,74.2-169C203.4-70.6-95.6,148.7,72.7,388
			c152.8,190.3,387,33.2,400.8-37.9C98.2,630.4-20.6,181.4,155.8,109.7z M248.3,181.8l-9.5-19c0.5,0.5,14.3,15.1,31.4-6.7
			c17,21.7,32.3,6.5,32.8,6l-11.4,19.7H248.3z M264.3,81.2c44,0,79.7,30.2,79.7,67.5c0,27.7-19.7,51.5-47.9,61.9
			c13.1-8.2,21.8-22.3,21.8-38.3c0-25.3-21.5-45.8-48.1-45.8s-48.1,20.5-48.1,45.8c0,20.2,13.8,37.4,32.8,43.4
			c-39.4-4.1-70-32.5-70-67C184.5,111.4,220.2,81.2,264.3,81.2z"/>
		<g>
			<path class="st6" d="M123.1,298.1c0,0,2.8,39.3,0,44.8c0,0,9.2-0.4,11.7-1.3s0-43.5,0-43.5H123.1z"/>
			<path class="st7" d="M95.7,305.5c0,0,47.6-7.6,61.7,0c0,0-12.9-80.9-27.9-92C129.5,213.5,112.9,295.7,95.7,305.5z"/>
		</g>
		<path class="st8" d="M118.1,343.7l256.9,3.5v-12.6c0,0-87.5-33.6-115.9-68.9c-3.7,14-38,23.8-38,23.8s25.5,30.2,85.3,42.9
			c-40.3-6.7-72-22.1-131.4-74.5C175,258,204.5,327.5,118.1,343.7z"/>
	</g>
</g>
</svg>
